<svg viewBox="0 0 24 24" fill="none" xmlns="http://www.w3.org/2000/svg">
  <defs>
    <linearGradient id="faviconGradient" x1="0%" y1="0%" x2="100%" y2="100%">
      <stop offset="0%" stop-color="#3B82F6" />
      <stop offset="50%" stop-color="#8B5CF6" />
      <stop offset="100%" stop-color="#06B6D4" />
    </linearGradient>
  </defs>
  
  <!-- Main Shape - Modern Briefcase/Forge -->
  <path
    d="M4 7C4 5.89543 4.89543 5 6 5H18C19.1046 5 20 5.89543 20 7V19C20 20.1046 19.1046 21 18 21H6C4.89543 21 4 20.1046 4 19V7Z"
    fill="url(#faviconGradient)"
    stroke="url(#faviconGradient)"
    stroke-width="1.5"
  />
  
  <!-- Handle -->
  <path
    d="M8 5C8 3.89543 8.89543 3 10 3H14C15.1046 3 16 3.89543 16 5V7H8V5Z"
    fill="url(#faviconGradient)"
    stroke="url(#faviconGradient)"
    stroke-width="1.5"
  />
  
  <!-- AI Circuit Pattern -->
  <path
    d="M7 9H17M7 12H17M7 15H17M7 18H15"
    stroke="white"
    stroke-width="1"
    stroke-linecap="round"
    opacity="0.8"
  />
  
  <!-- Sparkle/Intelligence Indicator -->
  <circle
    cx="18"
    cy="9"
    r="1.5"
    fill="white"
    opacity="0.9"
  />
  
  <!-- Gear/Technology Symbol -->
  <path
    d="M6 9C6 9.55228 5.55228 10 5 10C4.44772 10 4 9.55228 4 9C4 8.44772 4.44772 8 5 8C5.55228 8 6 8.44772 6 9Z"
    fill="white"
    opacity="0.7"
  />
</svg> 